<svg width="19" height="22" viewBox="0 0 19 22" fill="none" xmlns="http://www.w3.org/2000/svg">
<path d="M16.1542 4.17227C14.3772 2.36758 12.0107 1.375 9.49576 1.375C4.30469 1.375 0.0805804 5.65469 0.0805804 10.9141C0.0805804 12.5941 0.51317 14.2355 1.33594 15.6836L0 20.625L4.99174 19.2973C6.36585 20.0578 7.91384 20.4574 9.49152 20.4574H9.49576C14.6826 20.4574 19 16.1777 19 10.9184C19 8.37031 17.9312 5.97695 16.1542 4.17227ZM9.49576 18.8504C8.08772 18.8504 6.70937 18.468 5.50915 17.7461L5.225 17.5742L2.26473 18.3605L3.05357 15.4344L2.86696 15.1336C2.08237 13.8703 1.67098 12.4137 1.67098 10.9141C1.67098 6.54414 5.18259 2.98633 9.5 2.98633C11.5908 2.98633 13.5545 3.81133 15.0304 5.31094C16.5062 6.81055 17.4138 8.8 17.4096 10.9184C17.4096 15.2926 13.8089 18.8504 9.49576 18.8504ZM13.7877 12.9121C13.5545 12.7918 12.3967 12.216 12.1804 12.1387C11.9641 12.057 11.8071 12.0184 11.6502 12.259C11.4933 12.4996 11.0437 13.0324 10.9038 13.1957C10.7681 13.3547 10.6281 13.3762 10.3949 13.2559C9.01228 12.5555 8.10469 12.0055 7.19286 10.4199C6.95112 9.99883 7.4346 10.0289 7.88415 9.11797C7.96049 8.95898 7.92232 8.82148 7.86295 8.70117C7.80357 8.58086 7.33281 7.40781 7.13772 6.93086C6.94688 6.4668 6.75179 6.53125 6.60759 6.52266C6.47187 6.51406 6.31495 6.51406 6.15804 6.51406C6.00112 6.51406 5.74665 6.57422 5.53036 6.81055C5.31406 7.05117 4.70759 7.62695 4.70759 8.8C4.70759 9.97305 5.55156 11.1074 5.66607 11.2664C5.78482 11.4254 7.32433 13.8316 9.68661 14.8672C11.1795 15.5203 11.7647 15.5762 12.5112 15.4645C12.965 15.3957 13.9022 14.8887 14.0973 14.3301C14.2924 13.7715 14.2924 13.2945 14.233 13.1957C14.1779 13.0883 14.021 13.0281 13.7877 12.9121Z" fill="white"/>
</svg>
