<svg width="192" height="144" viewBox="0 0 192 144" fill="none" xmlns="http://www.w3.org/2000/svg">
<path d="M87.8772 57.3168H26.9172V123.077H87.8772V57.3168Z" fill="#030303"/>
<path d="M91.4773 119.477H23.3173V123.077H91.4773V119.477Z" fill="#030303"/>
<path d="M84.2772 60.9168H30.5172V119.477H84.2772V60.9168Z" fill="#F5EBDD"/>
<path d="M86.9172 82.3968H27.8772V85.9968H86.9172V82.3968Z" fill="#030303"/>
<path d="M40.6524 87.8268C40.6524 87.8268 43.3704 87.9768 45.3972 86.8368C47.3172 85.7568 47.6268 84.0648 46.9572 80.7168C46.9572 80.7168 48.1572 79.9968 48.0372 79.2768C47.9592 78.8028 46.5972 78.3168 46.5972 78.3168C46.4268 77.4024 46.2108 76.02 45.8604 74.6064C44.9838 74.7787 44.0933 74.8703 43.2 74.88C40.5216 77.8932 37.5972 78.0768 37.5972 78.0768C37.1737 77.4441 36.5992 76.9269 35.9256 76.572L31.9308 78.1644C31.8927 78.2935 31.8615 78.4244 31.8372 78.5568C31.2816 81.7068 35.1972 82.8768 35.1972 82.8768C34.4076 85.8936 31.8372 87.0768 29.9076 87.5412L30.0708 89.04H40.854L40.6524 87.8268Z" fill="#EAA58B"/>
<path d="M66.48 111.72C75.84 108.96 76.44 86.88 76.44 86.88L71.5572 80.5968C71.5572 80.5968 72.48 76.08 71.52 75.24C70.3608 74.226 68.9004 77.4 67.32 81.36C65.6592 85.5204 62.5572 97.7568 62.3172 98.5968C62.3172 98.5968 59.9892 97.5024 57.2304 96.2304L56.8392 97.5168L53.28 109.516C57.1824 111.113 62.7132 112.831 66.48 111.72Z" fill="#EAA58B"/>
<path d="M35.1973 82.8768C35.1973 82.8768 31.2817 81.7068 31.8373 78.5568C31.8616 78.4244 31.8928 78.2935 31.9309 78.1644L29.0209 79.32C29.0209 79.4028 29.0341 79.4808 29.0401 79.56L29.9077 87.5412C31.8409 87.0768 34.4077 85.8936 35.1973 82.8768Z" fill="#A15842"/>
<path d="M37.5973 78.0768C37.5973 78.0768 40.5217 77.8932 43.2001 74.88C44.0934 74.8703 44.9839 74.7787 45.8605 74.6064C45.7117 74.0064 45.5377 73.4004 45.3313 72.8208L35.9257 76.572C36.5992 76.9269 37.1737 77.4441 37.5973 78.0768Z" fill="#A15842"/>
<path d="M31.9308 78.1644L35.9256 76.572C34.2756 75.7344 32.4648 76.3452 31.9308 78.1644Z" fill="#30242A"/>
<path d="M35.9256 76.572L45.3312 72.8208C45.0036 71.898 44.5956 71.0448 44.0772 70.3968C42.0684 67.8852 37.1364 66.0624 32.7828 69.2436C28.5912 72.3072 28.8468 77.1756 29.0208 79.3236L31.9308 78.1632C32.4648 76.3452 34.2756 75.7344 35.9256 76.572Z" fill="#30242A"/>
<path d="M47.1384 94.32L46.8528 91.8504C43.548 90.8868 41.16 90.84 41.16 90.84L40.86 89.04H30.0708L30.24 90.6C29.1709 90.5969 28.1035 90.688 27.0504 90.8724L28.56 94.32H47.1384Z" fill="#4756DF"/>
<path d="M31.7004 101.52H47.9724L47.556 97.92H30.1284L31.7004 101.52Z" fill="#4756DF"/>
<path d="M33.2736 105.12L34.8456 108.72H48.7799L48.6371 107.357L48.6491 107.363L48.3887 105.12H33.2736Z" fill="#4756DF"/>
<path d="M37.4773 114.197C37.4773 114.197 45.2977 114.718 49.4773 115.397L49.1557 112.32H36.6289L37.4773 114.197Z" fill="#4756DF"/>
<path d="M47.556 97.92L47.1384 94.32H28.5564L30.1284 97.92H47.556Z" fill="#FFB7D5"/>
<path d="M31.7004 101.52L33.2736 105.12H48.3888L47.9724 101.52H31.7004Z" fill="#FFB7D5"/>
<path d="M35.1972 109.157L36.6288 112.32H49.1556L48.78 108.72H34.9932L35.1972 109.157Z" fill="#FFB7D5"/>
<path d="M57.2221 96.2256C55.8589 95.5968 54.3913 94.92 53.0485 94.32C51.8713 93.7896 50.7889 93.3096 49.9573 92.9568C48.9454 92.5266 47.9088 92.1572 46.8529 91.8504L47.1385 94.32L47.5561 97.92L47.9725 101.52L48.3889 105.12L48.6493 107.363C48.7693 107.425 49.8265 107.995 51.4285 108.72C51.9613 108.96 52.5541 109.219 53.1913 109.481L53.2777 109.516L56.8393 97.5156L57.2305 96.2292L57.2221 96.2256Z" fill="#4756DF"/>
<path d="M36.6289 112.32L35.1973 109.157L34.9933 108.72H34.8457L35.1601 109.44L23.4661 113.693C25.4365 117.617 27.6661 120.984 29.3173 122.597C35.0773 128.237 50.1613 124.723 50.1613 124.723C50.1613 124.723 51.8773 126.077 54.1573 126.557C58.2373 134.597 60.4813 131.803 60.4813 131.803C60.4813 131.803 61.9213 133.363 63.0013 131.683C65.1613 131.803 65.0413 130.483 63.1213 125.923C65.2813 128.563 67.4317 128.605 67.4773 127.877C67.5973 125.957 62.1973 119.597 57.2413 117.523C54.2605 116.276 49.4773 115.397 49.4773 115.397C45.2977 114.724 37.4773 114.197 37.4773 114.197L36.6289 112.32Z" fill="#EAA58B"/>
<path d="M27.0504 90.8724C24.8244 91.254 21.9696 92.16 20.3208 94.32C19.5876 95.28 19.092 96.48 19.0008 97.9968C18.7284 102.366 20.8692 108.514 23.4696 113.693L35.16 109.44L27.0504 90.8724Z" fill="#4756DF"/>
<path d="M38.6412 89.2032L38.8812 91.32" stroke="#30242A" stroke-width="4" stroke-linecap="round" stroke-linejoin="round"/>
<path d="M36.6012 89.2032L36.8412 91.32" stroke="#30242A" stroke-width="4" stroke-linecap="round" stroke-linejoin="round"/>
<path d="M40.6596 88.08C39.8758 88.0215 39.1096 87.8181 38.4 87.48" stroke="#A15842" stroke-width="4" stroke-miterlimit="10" stroke-linecap="round"/>
<path d="M63.3804 125.863C62.9184 124.838 62.3892 123.727 61.9128 122.885" stroke="#A15842" stroke-width="4" stroke-miterlimit="10" stroke-linecap="round"/>
<path d="M59.6593 124.08C61.1581 126.713 62.3161 129.677 63.0193 131.677" stroke="#A15842" stroke-width="4" stroke-miterlimit="10" stroke-linecap="round"/>
<path d="M57 125.64C58.08 127.621 59.3076 130.012 60.1932 131.792" stroke="#A15842" stroke-width="4" stroke-miterlimit="10" stroke-linecap="round"/>
<path d="M48.7932 107.312L48.36 102.84" stroke="#30242A" stroke-width="4" stroke-linecap="round" stroke-linejoin="round"/>
<path d="M62.046 98.5488L61.2372 101.717" stroke="#A15842" stroke-width="4" stroke-miterlimit="10" stroke-linecap="round"/>
<path d="M30.1908 90.36H31.68" stroke="#30242A" stroke-width="4" stroke-linecap="round" stroke-linejoin="round"/>
<path d="M41.4156 90.852L41.6413 92.2032" stroke="#30242A" stroke-width="4" stroke-linecap="round" stroke-linejoin="round"/>
<path d="M43.9933 70.1124L28.8733 75.8724" stroke="#4756DF" stroke-width="4" stroke-miterlimit="10" stroke-linecap="round"/>
<path d="M37.2732 113.912L33.9972 113.717" stroke="#A15842" stroke-width="4" stroke-miterlimit="10" stroke-linecap="round"/>
<path d="M37.3932 114.032L32.88 104.04" stroke="#30242A" stroke-width="4" stroke-linecap="round" stroke-linejoin="round"/>
<path d="M71.9688 79.548C71.6928 80.6364 71.3064 82.068 70.92 83.16C70.92 83.16 72.96 86.76 70.8 90.96" stroke="#A15842" stroke-width="4" stroke-miterlimit="10" stroke-linecap="round"/>
<path d="M76.7892 115.051H71.5824C71.5468 115.051 71.5126 115.037 71.4874 115.012C71.4622 114.987 71.448 114.952 71.448 114.917V111.101C71.448 111.065 71.4622 111.031 71.4874 111.006C71.5126 110.981 71.5468 110.966 71.5824 110.966H76.7892C77.3303 110.966 77.8491 111.181 78.2317 111.564C78.6143 111.946 78.8292 112.465 78.8292 113.006C78.8298 113.275 78.7775 113.54 78.6753 113.789C78.5731 114.037 78.4229 114.262 78.2334 114.452C78.0439 114.642 77.8188 114.793 77.571 114.895C77.3232 114.998 77.0575 115.051 76.7892 115.051V115.051Z" stroke="#A15842" stroke-width="8" stroke-miterlimit="10"/>
<path d="M70.0272 110.345C65.73 110.345 63.7428 106.92 63.7428 106.92L66.6324 119.488H73.422L76.3104 106.92C75.6398 107.977 74.7111 108.846 73.6119 109.445C72.5127 110.045 71.2791 110.354 70.0272 110.345Z" fill="#FF7235"/>
<path d="M70.0272 110.345C71.2791 110.354 72.5127 110.044 73.6119 109.445C74.7111 108.846 75.6398 107.977 76.3104 106.92H63.7428C63.7428 106.92 65.73 110.345 70.0272 110.345Z" fill="#A15842"/>
<path d="M36.0001 80.28L34.2001 78.96" stroke="#A15842" stroke-width="4" stroke-miterlimit="10" stroke-linecap="round"/>
<path d="M44.4816 78.7992C44.7567 78.7992 44.9796 78.5762 44.9796 78.3012C44.9796 78.0262 44.7567 77.8032 44.4816 77.8032C44.2066 77.8032 43.9836 78.0262 43.9836 78.3012C43.9836 78.5762 44.2066 78.7992 44.4816 78.7992Z" fill="#30242A"/>
<path d="M25.7449 80.4312L48.6109 71.7612" stroke="#30242A" stroke-width="4" stroke-linecap="round" stroke-linejoin="round"/>
<path d="M44.0028 81.6924C44.1228 81.9324 44.7912 82.4844 45.4368 82.1088" stroke="#A15842" stroke-width="4" stroke-miterlimit="10" stroke-linecap="round"/>
<path d="M76.0537 91.0872C75.7633 90.7944 75.5401 90.3 75.6001 89.52C75.6001 89.52 74.5201 90.12 73.8001 89.52C72.8545 88.7316 73.2001 87.6 73.2001 87.6C73.2001 87.6 72.1201 87.96 71.6401 87.12C71.1193 86.2092 71.7601 84.96 71.7601 84.96C71.7601 84.96 70.8973 85.08 70.6801 84.24C70.4041 83.1768 70.9813 82.2096 71.5885 81.51" stroke="#A15842" stroke-width="8" stroke-miterlimit="10" stroke-linecap="round"/>
<path d="M57.226 68.6106L74.2492 62.1441C75.4114 61.7026 75.9957 60.4025 75.5542 59.2402L70.8762 46.9252C70.4347 45.7629 69.1346 45.1786 67.9723 45.6201L50.9491 52.0866C49.7868 52.5281 49.2025 53.8283 49.644 54.9905L54.3221 67.3055C54.7636 68.4678 56.0637 69.0521 57.226 68.6106Z" fill="#30242A"/>
<path d="M77.3119 98.3234C77.5001 98.8191 78.0546 99.0682 78.5502 98.88C79.0458 98.6917 79.295 98.1373 79.1067 97.6416L66.6936 64.9639C66.5053 64.4682 65.9509 64.2191 65.4553 64.4073C64.9596 64.5956 64.7105 65.15 64.8987 65.6457L77.3119 98.3234Z" fill="#30242A"/>
<path d="M64.6117 53.2944C64.0601 53.0578 63.4372 53.0498 62.8797 53.2721C62.3222 53.4944 61.8756 53.9288 61.6381 54.48L61.3765 55.0896L60.7669 54.8268C60.2174 54.5989 59.6002 54.5965 59.0489 54.8202C58.4977 55.0439 58.0567 55.4757 57.8213 56.0221C57.586 56.5685 57.5753 57.1855 57.7914 57.7398C58.0076 58.294 58.4334 58.7409 58.9765 58.9836L59.5861 59.2464L63.7417 61.0368L65.5333 56.88L65.7949 56.2716C65.9132 55.9985 65.9763 55.7047 65.9809 55.4071C65.9854 55.1096 65.9311 54.814 65.8212 54.5374C65.7113 54.2609 65.5479 54.0087 65.3403 53.7954C65.1328 53.5821 64.8852 53.4118 64.6117 53.2944Z" fill="#FFB7D5"/>
<path d="M74.9148 79.3344C76.032 80.0052 75.792 81.3048 75.792 81.3048C75.792 81.3048 78.0396 80.9964 77.9736 83.2944C77.9736 83.2944 79.7652 84.1176 78.9432 85.9092C78.9432 85.9092 80.1756 86.2308 79.56 88.2C78.96 90.12 77.7324 91.3308 76.92 91.44C76.4904 91.4976 75.48 91.08 75.6 89.52C75.6 89.52 74.52 90.12 73.8 89.52C72.8544 88.7316 73.2 87.6 73.2 87.6C73.2 87.6 72.12 87.96 71.64 87.12C71.1192 86.2092 71.76 84.96 71.76 84.96C71.76 84.96 70.8972 85.08 70.68 84.24C70.2192 82.4676 72.1308 80.9628 72.6 80.52L72.24 79.56C72.24 79.56 73.8 78.6648 74.9148 79.3344Z" fill="#EAA58B"/>
<path d="M71.3413 85.3932C72.7033 84.5916 74.7673 83.1132 75.9265 81.3444" stroke="#A15842" stroke-width="4" stroke-miterlimit="10" stroke-linecap="round"/>
<path d="M72.9229 87.8916C74.9011 86.7453 76.6433 85.2333 78.0565 83.436" stroke="#A15842" stroke-width="4" stroke-miterlimit="10" stroke-linecap="round"/>
<path d="M75.6733 89.6724C76.6333 88.9524 77.9533 87.6324 79.0669 86.1144" stroke="#A15842" stroke-width="4" stroke-miterlimit="10" stroke-linecap="round"/>
<path d="M164.197 20.2368H103.237V85.9968H164.197V20.2368Z" fill="#FFB7D5"/>
<path d="M167.797 82.3968H99.6372V85.9968H167.797V82.3968Z" fill="#FFB7D5"/>
<path d="M160.597 23.8368H106.837V82.3968H160.597V23.8368Z" fill="#F5EBDD"/>
<path d="M163.237 45.3168H104.197V48.9168H163.237V45.3168Z" fill="#FFB7D5"/>
<path d="M128.2 41.9367L129.517 45.5438L114.976 50.8535C114.498 51.0281 113.97 51.0056 113.508 50.7909C113.047 50.5762 112.689 50.1869 112.514 49.7085C112.34 49.2302 112.362 48.7021 112.577 48.2404C112.792 47.7786 113.181 47.4211 113.659 47.2464L128.2 41.9367Z" fill="#30242A"/>
<path d="M116.726 46.1269L118.043 49.734L114.977 50.8535C114.498 51.0282 113.97 51.0057 113.509 50.791C113.047 50.5763 112.689 50.1869 112.515 49.7086C112.34 49.2303 112.362 48.7021 112.577 48.2404C112.792 47.7787 113.181 47.4212 113.66 47.2465L116.726 46.1269Z" fill="#30242A"/>
<path d="M131.005 47.1576C133.325 47.1576 135.205 45.2772 135.205 42.9576C135.205 40.638 133.325 38.7576 131.005 38.7576C128.686 38.7576 126.805 40.638 126.805 42.9576C126.805 45.2772 128.686 47.1576 131.005 47.1576Z" fill="#4756DF"/>
<path d="M112.56 49.68C107.52 51.48 101.204 54.1392 97.08 48.96C91.92 42.48 102 35.76 104.76 44.28C107.873 53.8896 88.8384 60.6516 93.72 69.36C98.16 77.28 112.138 68.7456 120.24 71.64C126.96 74.04 127.135 82.23 127.135 82.23" stroke="#30242A" stroke-width="4" stroke-miterlimit="10" stroke-linecap="round"/>
<path d="M126.157 42.6768C125.917 41.2368 124.957 40.1568 124.357 40.014C122.926 39.6756 122.135 40.974 122.135 40.974C122.135 40.974 121.002 39.936 119.418 41.328C119.418 41.328 117.604 40.7616 116.82 42.3912C116.82 42.3912 116.014 42.0864 115.118 43.7544C114.39 45.114 113.798 47.1504 114.638 47.7144C114.998 47.9544 116.078 47.8344 116.438 46.9944C116.438 46.9944 116.762 47.5944 117.398 47.4744C118.718 47.2344 118.838 46.1544 118.838 46.1544C118.838 46.1544 118.95 46.5612 119.678 46.6344C120.859 46.7544 121.478 45.5544 121.478 45.5544C121.478 45.5544 121.926 45.8532 122.798 45.5544C123.964 45.1548 124.265 43.4112 124.265 43.4112L126.157 42.6768Z" fill="#A15842"/>
<path d="M171.595 62.2345C173.603 60.1415 173.278 56.5703 170.869 54.258C168.459 51.9457 164.878 51.7679 162.869 53.8609C160.861 55.9539 161.186 59.5251 163.595 61.8374C166.005 64.1497 169.586 64.3275 171.595 62.2345Z" fill="#30242A"/>
<path d="M161.077 58.7568C161.077 58.7568 165.277 56.1168 165.877 51.3168" stroke="black" stroke-width="4" stroke-linecap="round" stroke-linejoin="round"/>
<path d="M148.365 54.8355C149.373 51.6519 147.949 48.3608 145.184 47.4847C142.419 46.6085 139.359 48.4791 138.35 51.6627C137.342 54.8462 138.766 58.1373 141.531 59.0135C144.296 59.8896 147.356 58.0191 148.365 54.8355Z" fill="#30242A"/>
<path d="M164.69 53.0232C164.581 52.6428 171.188 56.7132 169.85 58.0632C168.588 59.3304 165.24 54.9456 164.69 53.0232Z" fill="#4756DF"/>
<path d="M164.743 53.2596C164.527 52.7952 170.224 46.9788 171.178 48.6C172.095 50.16 164.959 53.7228 164.743 53.2596Z" fill="#4756DF"/>
<path d="M158.197 54.0768C156.637 53.5968 153.277 53.3568 151.357 53.1168C147.277 50.9568 148.357 45.3168 148.357 45.3168C148.597 45.1968 152.503 44.4876 151.965 41.4372C151.485 38.6772 148.236 38.6772 146.453 40.626C146.453 40.626 143.917 39.5568 143.197 36.0768C143.197 36.0768 141.057 36.3228 139.572 35.9304C139.249 37.3572 139.169 38.9208 138.877 40.5168C138.877 40.5168 137.317 40.6368 137.197 41.2368C137.077 41.8704 138.311 42.6192 138.311 42.6192C137.471 45.6696 137.591 48.4344 139.477 49.5168C141.157 50.4768 143.197 50.1168 143.197 50.1168L142.957 52.9968C140.856 53.0762 138.785 53.5229 136.837 54.3168C132.855 55.9392 123.517 62.1168 123.517 62.1168C124.237 59.7168 127.191 52.1472 128.317 47.3568C128.797 45.3168 129.277 43.3968 128.077 43.2768C126.765 43.1448 124.837 47.2368 124.837 47.2368L116.677 50.2368C111.867 56.7444 106.237 71.4768 113.557 75.1968C120.157 78.5568 134.917 70.3968 134.917 70.3968L133.597 82.3968H157.597L162.997 56.8368C162.997 56.8368 163.02 56.8128 163.061 56.766C161.374 55.3068 159.342 54.4284 158.197 54.0768Z" fill="#A15842"/>
<path d="M155.077 51.72H143.064L142.957 52.9968C142.021 53.0232 141.09 53.1324 140.173 53.3232C139.867 53.3844 139.543 53.4564 139.206 53.5416C138.4 53.7452 137.608 54.0042 136.837 54.3168C136.668 54.3852 136.487 54.4644 136.298 54.5484C135.95 54.7068 135.578 54.8892 135.172 55.092C132.464 56.466 128.742 58.7652 126.238 60.3576L129.49 66.8604L131.122 70.1244L131.992 71.8632C133.777 71.0232 134.917 70.3968 134.917 70.3968L133.597 82.3968H157.597L162.997 56.8368C163.285 56.5155 163.552 56.1756 163.795 55.8192V55.7844L155.077 51.72Z" fill="#030303"/>
<path d="M137.953 55.1172L136.299 54.5484C135.951 54.7068 135.579 54.8892 135.172 55.092L136.528 57.3108L133.834 60.9852L137.386 59.5164L139.365 63.1656L139.59 59.148L143.02 58.4136L140.08 56.5764L140.173 53.3232C139.867 53.3844 139.543 53.4564 139.206 53.5416L137.953 55.1172Z" fill="#FF7235"/>
<path d="M131.956 68.904L134.893 68.466L134.926 67.59L133.405 66.8952L134.66 63.156L131.309 65.3604L129.202 62.9604L129.506 66.8544L129.49 66.8604L131.122 70.1244L131.956 68.904Z" fill="#FF7235"/>
<path d="M150.461 58.866L151.808 63.3972L153.155 58.866L157.442 57.6408L153.277 55.926V52.0068L150.95 55.068L147.643 53.4756L149.603 56.7828L146.542 59.3556L150.461 58.866Z" fill="#FF7235"/>
<path d="M146.381 81.4092L143.858 77.6784L146.024 74.412L142.393 75.6768L140.516 72.522L140.322 76.362L136.349 76.8132L139.885 78.5712L138.716 82.3968H139.336L142.132 80.0604L146.381 81.4092Z" fill="#FF7235"/>
<path d="M147.61 73.8396L150.548 71.268L153.856 73.4724L152.386 69.798L154.958 66.9816L151.284 67.5936L149.569 64.5312L149.201 67.8384L145.772 67.716L148.711 69.9204L147.61 73.8396Z" fill="#FF7235"/>
<path d="M143.197 36.0768C143.917 39.5568 146.453 40.626 146.453 40.626C148.236 38.6808 151.478 38.6808 151.964 41.4372C152.503 44.4876 148.597 45.1968 148.357 45.3168C148.357 45.3168 147.277 50.9568 151.357 53.1168C153.277 53.3568 156.637 53.5968 158.197 54.0768C159.342 54.4284 161.374 55.3068 163.061 56.766C163.661 56.0892 168.228 50.5896 163.957 45.1968C160.992 41.4504 156.119 42.0924 156.119 42.0924C156.281 40.146 156.599 35.1204 152.39 32.04C148.182 28.9596 142.824 30.5808 140.879 33.0132C140.184 33.8808 139.811 34.8684 139.572 35.9304C141.056 36.3228 143.197 36.0768 143.197 36.0768Z" fill="#30242A"/>
<path d="M124.615 47.1432C124.445 47.5368 124.27 47.9832 124.117 48.4368C124.117 48.4368 121.357 49.0368 120.615 50.8968" stroke="#30242A" stroke-width="4" stroke-miterlimit="10" stroke-linecap="round"/>
<path d="M123.863 61.8792L122.437 65.6136" stroke="#30242A" stroke-width="4" stroke-linecap="round" stroke-linejoin="round"/>
<path d="M135.157 65.9568L134.658 70.4472" stroke="#724342" stroke-width="4" stroke-linecap="round" stroke-linejoin="round"/>
<path d="M142.717 50.4768C143.821 50.3031 144.897 49.9877 145.92 49.5384" stroke="#30242A" stroke-width="4" stroke-miterlimit="10" stroke-linecap="round"/>
<path d="M148.08 42.72L149.64 41.76" stroke="#30242A" stroke-width="4" stroke-miterlimit="10" stroke-linecap="round"/>
<path d="M156.301 42.042C156.212 42.9312 156.092 44.0436 155.976 44.922" stroke="black" stroke-width="4" stroke-miterlimit="10" stroke-linecap="round"/>
<path d="M147.505 44.1792L147.068 46.8336C147.049 46.9502 147.06 47.0698 147.101 47.181C147.141 47.2921 147.209 47.391 147.298 47.4682C147.388 47.5454 147.496 47.5984 147.612 47.6219C147.727 47.6455 147.847 47.6389 147.96 47.6028L150.298 46.8528C150.41 46.8167 150.512 46.7522 150.592 46.6656C150.673 46.579 150.73 46.4731 150.757 46.3582C150.785 46.2432 150.783 46.1231 150.751 46.0092C150.719 45.8954 150.658 45.7916 150.575 45.708L148.68 43.8C148.59 43.7085 148.477 43.6438 148.352 43.6131C148.228 43.5825 148.097 43.5871 147.975 43.6264C147.853 43.6658 147.745 43.7384 147.662 43.836C147.579 43.9336 147.524 44.0525 147.505 44.1792Z" fill="#F4E6D8"/>
<path d="M141.893 43.5096C141.784 45.096 140.149 45.204 139.765 44.0772L141.893 43.5096Z" stroke="#30242A" stroke-width="4" stroke-linecap="round" stroke-linejoin="round"/>
<path d="M142.157 40.5828C141.866 40.7256 140.83 40.7556 140.494 39.9264" stroke="#30242A" stroke-width="4" stroke-linecap="round" stroke-linejoin="round"/>
<path d="M158.197 54.0768L158.16 73.44C158.16 73.44 146.364 66.378 145.452 66.3216C144.781 66.2796 144.282 67.7988 145.493 69.054C142.229 68.448 138.985 68.13 138.475 69.1236C138.168 69.7236 138.668 70.3476 138.668 70.3476C138.277 70.3968 137.896 70.5 137.677 70.7568C137.153 71.3724 137.873 72.3168 137.873 72.3168C137.208 72.6372 137.437 73.6368 138.037 74.1168C139.505 75.2892 143.902 76.1268 143.902 76.1268C142.32 76.32 139.277 76.5 139.44 77.4C139.68 78.72 146.4 78.72 146.4 78.72C148.92 80.4 150.997 80.3568 150.997 80.3568C150.997 80.3568 157.151 86.6736 163.357 88.1568C179.317 90.9168 166.837 61.0368 163.477 57.1968C161.392 54.8124 158.197 54.0768 158.197 54.0768Z" fill="#A15842"/>
<path d="M142.93 76.4004C143.77 76.392 144.679 76.3884 145.597 76.4004" stroke="#30242A" stroke-width="4" stroke-linecap="round" stroke-linejoin="round"/>
<path d="M137.76 72.5892C139.723 72.9492 143.191 73.6128 145.721 74.2368" stroke="#30242A" stroke-width="4" stroke-linecap="round" stroke-linejoin="round"/>
<path d="M138.55 70.4052C140.982 70.7376 144.474 71.2452 146.677 71.7168" stroke="#30242A" stroke-width="4" stroke-linecap="round" stroke-linejoin="round"/>
<path d="M145.753 68.9124C146.636 69.1128 147.506 69.3681 148.357 69.6768" stroke="#30242A" stroke-width="4" stroke-linecap="round" stroke-linejoin="round"/>
<path d="M165.27 62.508L165.044 66.5256L163.066 62.88L159.514 64.3488L162.208 60.6744L160.133 57.2784L163.633 58.4784L164.04 57.96C163.868 57.6935 163.678 57.4386 163.472 57.1968C161.387 54.8124 158.192 54.0768 158.192 54.0768L158.165 68.4648L159.228 69.5076L162.167 66.2892L160.681 70.71L160.942 70.902L169.039 69.162C168.267 66.8204 167.368 64.523 166.344 62.28L165.27 62.508Z" fill="#030303"/>
<path d="M160.133 57.2748L162.208 60.6708L159.514 64.3452L163.066 62.8764L165.044 66.5256L165.27 62.508L166.35 62.2788C165.503 60.4356 164.692 58.926 164.051 57.9588L163.639 58.476L160.133 57.2748Z" fill="#FF7235"/>
<path d="M160.686 70.71L162.172 66.288L159.233 69.5076L158.17 68.4648L158.164 71.5008L160.946 70.902L160.686 70.71Z" fill="#FF7235"/>
<path d="M157.92 65.7816V72.9924" stroke="#724342" stroke-width="4" stroke-linecap="round" stroke-linejoin="round"/>
<path d="M157.873 72.9924C157.873 72.9924 160.2 74.4 163.8 76.56" stroke="#30242A" stroke-width="4" stroke-linecap="round" stroke-linejoin="round"/>
<path d="M116.562 42.4956C116.236 43.7064 115.945 45.4116 116.191 47.1612" stroke="#30242A" stroke-width="4" stroke-miterlimit="10" stroke-linecap="round"/>
<path d="M119.105 41.4132C118.789 42.3612 118.456 43.998 118.652 46.4292" stroke="#30242A" stroke-width="4" stroke-miterlimit="10" stroke-linecap="round"/>
<path d="M121.873 40.9524C121.53 41.9592 121.07 43.5396 121.266 45.558" stroke="#30242A" stroke-width="4" stroke-miterlimit="10" stroke-linecap="round"/>
<path d="M124.613 41.9208C124.613 41.9208 124.578 42.6648 124.519 43.4808" stroke="#30242A" stroke-width="4" stroke-miterlimit="10" stroke-linecap="round"/>
</svg>
