<svg width="293" height="190" viewBox="0 0 293 190" fill="none" xmlns="http://www.w3.org/2000/svg">
<path d="M49.4052 187.664C49.0091 187.664 48.6188 187.569 48.2677 187.385C47.9165 187.202 47.6149 186.937 47.3884 186.612C47.162 186.287 47.0174 185.912 46.9671 185.519C46.9167 185.126 46.9621 184.727 47.0993 184.355L53.1283 168.02H62.7167L51.5076 186.495C51.2866 186.854 50.9772 187.149 50.6091 187.354C50.2409 187.559 49.8264 187.666 49.4052 187.664Z" fill="black"/>
<path d="M134.756 187.664C135.152 187.664 135.543 187.569 135.894 187.385C136.245 187.202 136.547 186.937 136.773 186.612C137 186.287 137.144 185.912 137.194 185.519C137.245 185.126 137.199 184.727 137.062 184.355L131.033 168.02H121.445L132.654 186.495C132.875 186.854 133.184 187.149 133.552 187.354C133.921 187.559 134.335 187.666 134.756 187.664Z" fill="black"/>
<path d="M144.233 119.481H39.9291V173.972H144.233V119.481Z" fill="#CA7358"/>
<path d="M137.217 126.497H46.9449V166.956H137.217V126.497Z" fill="#FFBE21"/>
<path d="M137.333 146.79H46.9449" stroke="#CA7358" stroke-width="4" stroke-miterlimit="10"/>
<path d="M92.0808 139.657C93.5016 139.657 94.6533 138.505 94.6533 137.084C94.6533 135.663 93.5016 134.512 92.0808 134.512C90.6601 134.512 89.5083 135.663 89.5083 137.084C89.5083 138.505 90.6601 139.657 92.0808 139.657Z" fill="#30242A"/>
<path d="M92.0808 159.301C93.5016 159.301 94.6533 158.15 94.6533 156.729C94.6533 155.308 93.5016 154.156 92.0808 154.156C90.6601 154.156 89.5083 155.308 89.5083 156.729C89.5083 158.15 90.6601 159.301 92.0808 159.301Z" fill="#30242A"/>
<path d="M72.3193 96.3918C74.1921 96.3918 75.7103 94.8736 75.7103 93.0008C75.7103 91.128 74.1921 89.6097 72.3193 89.6097C70.4464 89.6097 68.9282 91.128 68.9282 93.0008C68.9282 94.8736 70.4464 96.3918 72.3193 96.3918Z" fill="#FFBE21"/>
<path d="M89.8592 96.3918C91.732 96.3918 93.2502 94.8736 93.2502 93.0008C93.2502 91.128 91.732 89.6097 89.8592 89.6097C87.9864 89.6097 86.4681 91.128 86.4681 93.0008C86.4681 94.8736 87.9864 96.3918 89.8592 96.3918Z" fill="#FFBE21"/>
<path d="M81.0892 89.6097C80.6339 89.6098 80.1846 89.7129 79.7749 89.9114C79.5703 89.233 79.1588 88.6355 78.5979 88.2025C78.037 87.7695 77.3548 87.5227 76.6466 87.4966C75.9385 87.4705 75.24 87.6664 74.6487 88.0569C74.0575 88.4474 73.6031 89.013 73.3491 89.6745C73.0952 90.3361 73.0544 91.0604 73.2325 91.7463C73.4105 92.4321 73.7986 93.0451 74.3423 93.4996C74.8859 93.954 75.5581 94.2271 76.2646 94.2806C76.9712 94.3342 77.6768 94.1655 78.2828 93.7982C78.4911 94.309 78.8345 94.7534 79.2761 95.084C79.7178 95.4145 80.241 95.6186 80.7898 95.6745C81.3385 95.7304 81.8922 95.636 82.3914 95.4013C82.8906 95.1666 83.3165 94.8005 83.6236 94.3422C83.9306 93.884 84.1072 93.3508 84.1344 92.7999C84.1616 92.2489 84.0384 91.7009 83.778 91.2147C83.5175 90.7284 83.1297 90.3221 82.6561 90.0394C82.1824 89.7567 81.6408 89.6082 81.0892 89.6097Z" fill="#FFBE21"/>
<path d="M87.1533 89.6191C86.9202 89.0505 86.537 88.556 86.0447 88.1883C85.5524 87.8207 84.9694 87.5937 84.3581 87.5316C83.7467 87.4696 83.13 87.5748 82.5739 87.8361C82.0177 88.0973 81.543 88.5048 81.2005 89.0149C80.8579 89.525 80.6604 90.1187 80.6291 90.7323C80.5977 91.346 80.7337 91.9567 81.0225 92.499C81.3113 93.0414 81.742 93.4951 82.2686 93.8117C82.7953 94.1283 83.398 94.2958 84.0125 94.2964C84.1304 94.296 84.2483 94.2898 84.3656 94.2777C84.642 94.718 85.0267 95.0801 85.483 95.3293C85.9392 95.5785 86.4518 95.7066 86.9716 95.7013C87.4915 95.696 88.0013 95.5574 88.4524 95.2989C88.9034 95.0404 89.2806 94.6705 89.548 94.2246C89.8153 93.7788 89.9639 93.2718 89.9794 92.7521C89.995 92.2325 89.877 91.7175 89.6368 91.2564C89.3965 90.7954 89.0421 90.4036 88.6073 90.1186C88.1725 89.8336 87.6719 89.6648 87.1533 89.6284V89.6191Z" fill="#FFBE21"/>
<path d="M79.9199 91.013C81.3407 91.013 82.4924 89.8612 82.4924 88.4405C82.4924 87.0197 81.3407 85.868 79.9199 85.868C78.4992 85.868 77.3474 87.0197 77.3474 88.4405C77.3474 89.8612 78.4992 91.013 79.9199 91.013Z" fill="#FFBE21"/>
<path d="M88.456 84.9325C89.4247 84.9325 90.21 84.1472 90.21 83.1785C90.21 82.2098 89.4247 81.4245 88.456 81.4245C87.4873 81.4245 86.702 82.2098 86.702 83.1785C86.702 84.1472 87.4873 84.9325 88.456 84.9325Z" fill="#FFBE21"/>
<path d="M67.1345 92.8839L71.8118 119.544H75.1257L71.4236 92.8839H67.1345Z" fill="#FF7235"/>
<path d="M90.6776 92.8839L86.9731 119.544H90.287L94.9643 92.8839H90.6776Z" fill="#FF7235"/>
<path d="M84.8311 92.8839L83.0818 119.544H86.9733L90.6777 92.8839H84.8311Z" fill="#F5EBDD"/>
<path d="M71.4236 92.8839L75.1257 119.544H79.0172L77.2702 92.8839H71.4236Z" fill="#F5EBDD"/>
<path d="M77.2703 92.8839L79.0172 119.544H83.0818L84.8311 92.8839H77.2703Z" fill="#FF7235"/>
<path d="M122.691 101.382H166.45V187.667H103.774V120.297C103.775 115.281 105.768 110.47 109.316 106.922C112.863 103.375 117.675 101.382 122.691 101.382Z" fill="#FF7235"/>
<path d="M171.101 54.5956H232.895C237.912 54.5962 242.723 56.5895 246.27 60.1372C249.817 63.6848 251.81 68.4961 251.81 73.5129V187.664H152.184V73.5129C152.184 68.4957 154.177 63.684 157.725 60.1363C161.272 56.5886 166.084 54.5956 171.101 54.5956Z" fill="#FF7235"/>
<path d="M148.884 124.423H232.895C237.911 124.423 242.722 126.416 246.269 129.964C249.816 133.511 251.809 138.321 251.81 143.338V187.664H129.967V143.338C129.967 138.321 131.961 133.51 135.508 129.963C139.056 126.416 143.867 124.423 148.884 124.423Z" fill="#FF7235"/>
<path d="M188.784 145.421H137.769" stroke="#CA7358" stroke-width="4" stroke-miterlimit="10"/>
<path d="M129.967 143.338V187.664" stroke="#CA7358" stroke-width="4" stroke-miterlimit="10"/>
<path d="M251.81 101.104H212.254" stroke="#CA7358" stroke-width="4" stroke-miterlimit="10"/>
<path d="M144.7 0H40.3967V70.627H144.7V0Z" fill="#F5EBDD"/>
<path d="M137.684 7.01593H47.4127V63.6111H137.684V7.01593Z" fill="#30242A"/>
<path d="M175.804 90.0775C175.804 90.0775 153.821 94.9886 142.596 101.303C131.052 107.795 129.967 116.906 122.762 138.789C119.6 148.377 118.012 155.262 116.312 159.977L135.93 169.241C136.866 167.505 137.698 165.798 138.386 164.212C138.386 164.212 147.38 163.813 148.239 151.776C148.879 142.783 149.188 136.128 152.327 129.411L205.952 89.9746L175.804 90.0775Z" fill="#30242A"/>
<path d="M108.264 168.394C108.166 168.41 108.068 168.429 107.967 168.443C101.019 169.498 98.1192 170.849 96.9756 174L125.975 187.517C126.306 187.672 126.68 187.706 127.034 187.615C127.388 187.523 127.699 187.312 127.913 187.017C128.036 186.848 128.124 186.658 128.172 186.455C128.221 186.253 128.228 186.043 128.195 185.837C128.161 185.632 128.087 185.435 127.977 185.259C127.867 185.082 127.723 184.929 127.553 184.809L108.451 176.14C108.902 173.571 108.838 170.938 108.264 168.394Z" fill="#30242A"/>
<path d="M135.93 169.241L116.311 159.977C115.308 162.76 114.265 164.79 112.836 166.182C111.648 167.351 110.189 168.053 108.264 168.394C108.838 170.938 108.902 173.571 108.451 176.14L127.563 184.809C127.489 184.756 127.411 184.71 127.329 184.671L126.627 184.336C127.764 182.699 129.548 180.029 131.456 176.942C132.972 174.521 134.541 171.85 135.93 169.241Z" fill="#EAA58B"/>
<path d="M138.224 164.545L117.806 154.975" stroke="#F5EBDD" stroke-width="4" stroke-linecap="round" stroke-linejoin="round"/>
<path d="M217.081 99.5279L216.263 90.5148H200.126C200.126 90.5148 172.998 97.0068 161.466 102.538C149.988 108.038 151.365 120.814 153.529 143.179C154.632 154.58 156.01 162.409 155.937 167.954H177.219C177.336 166.155 177.414 164.257 177.453 162.26C177.453 162.26 185.755 158.328 181.429 145.583C178.531 137.047 176.029 131.394 176.029 123.981H194.747C197.863 123.981 200.945 123.332 203.796 122.075C206.648 120.818 209.205 118.98 211.307 116.68C213.408 114.379 215.007 111.665 216.001 108.712C216.996 105.759 217.363 102.631 217.081 99.5279Z" fill="#30242A"/>
<path d="M150.884 178.361C145.477 182.038 143.568 184.442 143.868 187.657L175.886 187.615C176.229 187.601 176.553 187.454 176.791 187.207C177.028 186.959 177.161 186.629 177.161 186.286C177.161 185.942 177.028 185.612 176.791 185.365C176.553 185.117 176.229 184.971 175.886 184.956H154.523C154.523 184.956 153.353 181.009 150.884 178.361Z" fill="#30242A"/>
<path d="M155.937 167.954C155.898 171.111 155.388 173.53 154.088 175.438C153.386 176.449 152.493 177.313 151.459 177.98L150.884 178.361C153.356 181.002 154.523 184.956 154.523 184.956H174.747C175.515 181.82 176.102 178.642 176.506 175.438C176.796 173.202 177.048 170.698 177.226 167.954H155.937Z" fill="#EAA58B"/>
<path d="M176.272 96.8595C171.103 98.5106 165.004 100.531 161.071 102.472C152.088 106.899 150.942 115.531 151.917 129.905" stroke="#A15842" stroke-width="4" stroke-linecap="round" stroke-linejoin="round"/>
<path d="M175.804 124.535H170.002" stroke="#A15842" stroke-width="4" stroke-linecap="round" stroke-linejoin="round"/>
<path d="M177.441 162.655H155.692" stroke="#F5EBDD" stroke-width="4" stroke-miterlimit="10" stroke-linecap="round"/>
<path d="M208.052 101.382H251.81V187.667H189.134V120.297C189.135 115.281 191.128 110.47 194.676 106.922C198.224 103.375 203.035 101.382 208.052 101.382Z" fill="#FF7235"/>
<path d="M188.667 123.99V187.386" stroke="#CA7358" stroke-width="4" stroke-miterlimit="10"/>
<path d="M24.1433 153.689C18.7644 153.689 14.3771 150.464 14.2111 146.439V187.599H34.0895V146.439C33.9094 150.464 29.5292 153.689 24.1433 153.689Z" fill="#4756DF"/>
<path d="M14.5804 178.284C21.1053 177.582 28.8766 173.022 27.4172 162.225C26.2479 153.572 17.7119 156.027 22.623 164.212C25.5089 169.023 30.254 172.299 33.6755 174.182" stroke="#3EC1F3" stroke-width="4" stroke-miterlimit="10" stroke-linecap="round"/>
<path d="M14.5221 168.555C18.4113 171.217 25.3009 177.33 27.9272 187.183" stroke="#3EC1F3" stroke-width="4" stroke-miterlimit="10" stroke-linecap="round"/>
<path d="M14.4987 181.722C17.0501 182.477 20.3219 184.105 22.7845 187.211" stroke="#3EC1F3" stroke-width="4" stroke-miterlimit="10" stroke-linecap="round"/>
<path d="M21.6222 148.581C19.9665 151.465 17.4978 153.797 14.5244 155.286" stroke="#3EC1F3" stroke-width="4" stroke-miterlimit="10" stroke-linecap="round"/>
<path d="M24.1432 153.689C29.5221 153.689 33.9094 150.464 34.0754 146.439H14.204C14.377 150.464 18.7573 153.689 24.1432 153.689Z" fill="#30242A"/>
<path d="M18.5305 110.307L23.9094 150.765" stroke="#30242A" stroke-width="4" stroke-miterlimit="10" stroke-linecap="round"/>
<path d="M16.8092 126.612L23.1002 150.426" stroke="#30242A" stroke-width="4" stroke-miterlimit="10" stroke-linecap="round"/>
<path d="M36.3241 136.113C40.8037 134.198 44.0062 131.642 43.4771 130.405C42.948 129.167 38.8877 129.717 34.408 131.632C29.9284 133.547 26.7259 136.103 27.255 137.341C27.7841 138.578 31.8445 138.029 36.3241 136.113Z" fill="#30242A"/>
<path d="M20.5596 141.215C21.0157 140.005 16.968 137.359 11.5187 135.304C6.06942 133.249 1.28211 132.564 0.825948 133.774C0.369789 134.984 4.41752 137.63 9.8668 139.685C15.3161 141.739 20.1034 142.425 20.5596 141.215Z" fill="#30242A"/>
<path d="M27.9988 128.322C31.1526 125.947 33.221 123.373 32.6187 122.573C32.0164 121.774 28.9716 123.051 25.8178 125.427C22.664 127.803 20.5957 130.377 21.1979 131.176C21.8002 131.976 24.8451 130.698 27.9988 128.322Z" fill="#30242A"/>
<path d="M30.9253 115.218L24.8448 152.636" stroke="#30242A" stroke-width="4" stroke-miterlimit="10" stroke-linecap="round"/>
<path d="M20.9042 119.095C20.3424 118.164 19.5648 117.381 18.637 116.813C17.7092 116.246 16.6584 115.909 15.5734 115.833C14.4883 115.756 13.4008 115.942 12.4025 116.374C11.4043 116.806 10.5246 117.472 9.83778 118.316C9.15093 119.159 8.67704 120.156 8.45609 121.221C8.23514 122.286 8.27361 123.388 8.56826 124.435C8.86291 125.482 9.40509 126.443 10.1491 127.237C10.893 128.03 11.817 128.633 12.8429 128.995C13.186 126.777 14.1136 124.691 15.5305 122.951C16.9473 121.212 18.8022 119.88 20.9042 119.095Z" fill="#FFB7D5"/>
<path d="M17.8033 123.3C16.5679 120.483 14.3514 118.211 11.5662 116.906" stroke="#F5EBDD" stroke-width="4" stroke-miterlimit="10" stroke-linecap="round"/>
<path d="M16.7766 124.322C14.6342 122.094 11.7461 120.733 8.66382 120.499" stroke="#F5EBDD" stroke-width="4" stroke-miterlimit="10" stroke-linecap="round"/>
<path d="M12.8429 128.995C14.1604 129.459 15.5892 129.505 16.9339 129.127C18.2786 128.748 19.4737 127.964 20.3557 126.881C21.2378 125.797 21.7639 124.468 21.8621 123.075C21.9602 121.681 21.6257 120.292 20.9042 119.095C18.8022 119.881 16.9474 121.212 15.5305 122.951C14.1137 124.691 13.186 126.777 12.8429 128.995Z" fill="#FF7235"/>
<path d="M10.8878 105.91C10.8643 104.823 11.1026 103.746 11.5826 102.77C12.0626 101.794 12.7702 100.948 13.6458 100.303C14.5214 99.6578 15.5393 99.2328 16.6136 99.0637C17.6879 98.8946 18.7871 98.9863 19.8186 99.3311C20.85 99.6759 21.7834 100.264 22.54 101.045C23.2966 101.826 23.8542 102.778 24.1659 103.82C24.4776 104.862 24.5341 105.963 24.3307 107.032C24.1273 108.1 23.67 109.104 22.9973 109.958C21.5206 108.268 19.6202 107.003 17.4919 106.291C15.3635 105.58 13.0839 105.448 10.8878 105.91Z" fill="#FFB7D5"/>
<path d="M15.7591 107.802C15.2941 104.761 15.9507 101.655 17.6066 99.0625" stroke="#F5EBDD" stroke-width="4" stroke-miterlimit="10" stroke-linecap="round"/>
<path d="M17.1693 108.115C17.7882 105.087 19.4997 102.393 21.9776 100.545" stroke="#F5EBDD" stroke-width="4" stroke-miterlimit="10" stroke-linecap="round"/>
<path d="M22.9973 109.958C22.133 111.056 20.9506 111.86 19.6118 112.261C18.2731 112.661 16.8433 112.638 15.518 112.195C14.1927 111.752 13.0367 110.911 12.2079 109.786C11.3791 108.661 10.9181 107.307 10.8878 105.91C13.0839 105.448 15.3635 105.58 17.4919 106.291C19.6202 107.003 21.5206 108.268 22.9973 109.958Z" fill="#FF7235"/>
<path d="M27.1696 106.385C27.8382 105.527 28.7034 104.842 29.6923 104.388C30.6812 103.935 31.7646 103.726 32.8512 103.779C33.9378 103.832 34.9957 104.146 35.9355 104.694C36.8753 105.242 37.6696 106.008 38.2511 106.927C38.8327 107.847 39.1846 108.893 39.277 109.977C39.3695 111.061 39.1998 112.151 38.7824 113.156C38.3649 114.16 37.7119 115.05 36.8785 115.749C36.045 116.448 35.0556 116.936 33.9937 117.173C33.9171 114.931 33.2445 112.749 32.0451 110.853C30.8457 108.957 29.1628 107.415 27.1696 106.385Z" fill="#FFB7D5"/>
<path d="M29.7489 110.929C31.3088 108.276 33.7799 106.282 36.7017 105.316" stroke="#F5EBDD" stroke-width="4" stroke-miterlimit="10" stroke-linecap="round"/>
<path d="M30.6422 112.065C33.0349 110.108 36.0644 109.101 39.1525 109.236" stroke="#F5EBDD" stroke-width="4" stroke-miterlimit="10" stroke-linecap="round"/>
<path d="M33.9937 117.173C32.6305 117.477 31.2067 117.352 29.917 116.816C28.6273 116.28 27.5345 115.359 26.7879 114.179C26.0413 112.998 25.6772 111.616 25.7455 110.221C25.8139 108.826 26.3112 107.487 27.1695 106.385C29.1628 107.415 30.8457 108.957 32.0451 110.853C33.2445 112.749 33.9171 114.931 33.9937 117.173Z" fill="#FF7235"/>
<path d="M292.707 186.907C292.685 186.964 292.658 187.019 292.626 187.072C292.659 187.02 292.686 186.964 292.707 186.907Z" fill="#CA7358"/>
<path d="M281.56 181.755L275.43 187.601H291.099C291.925 187.601 292.407 187.409 292.622 187.08C291.415 187.304 284.418 183.392 281.56 181.755Z" fill="#CA7358"/>
<path d="M292.706 186.907C293.487 184.706 285.486 178.02 285.486 178.02L281.56 181.762C284.418 183.399 291.415 187.311 292.622 187.084C292.656 187.028 292.684 186.969 292.706 186.907Z" fill="#FFB7D5"/>
<path d="M291.567 165.85C291.333 167.019 280.575 168.89 280.575 168.89L279.902 164.428L279.64 164.446L281.385 177.777C281.385 177.777 292.269 168.188 291.567 165.85Z" fill="#CA7358"/>
<path d="M291.567 165.849C290.959 163.824 281.595 164.322 279.902 164.428L280.575 168.89C280.575 168.89 291.333 167.019 291.567 165.849Z" fill="#FFB7D5"/>
<path d="M278.632 165.719L279.036 157.297" stroke="#30242A" stroke-width="4" stroke-linecap="round" stroke-linejoin="round"/>
<path d="M276.988 164.797L274.801 154.056" stroke="#30242A" stroke-width="4" stroke-linecap="round" stroke-linejoin="round"/>
<path d="M241.286 187.664L230.346 173.088L235.44 167.709C234.972 166.072 232.867 158.822 230.061 156.483C227.254 154.145 224.682 154.145 223.279 154.612L223.236 154.626C222.89 154.754 222.585 154.975 222.355 155.263C222.125 155.552 221.978 155.898 221.929 156.264C221.881 156.63 221.934 157.002 222.082 157.34C222.23 157.679 222.467 157.97 222.769 158.183L225.383 160.471C225.383 160.471 219.537 164.914 219.537 169.825C219.537 173.249 221.384 175.003 223.215 175.906L218.367 182.688C218.367 182.688 213.456 183.389 203.868 180.583C200.947 179.727 197.787 178.244 194.836 176.883C194.836 180.068 193.372 182.62 191.204 184.498C196.176 186.458 202.504 187.664 207.416 187.664H241.286Z" fill="#A15842"/>
<path d="M211.819 182.571C212.633 184.14 213.632 185.749 215.393 187.173" stroke="#30242A" stroke-width="4" stroke-miterlimit="10" stroke-linecap="round"/>
<path d="M234.738 166.902L232.867 168.305" stroke="#30242A" stroke-width="4" stroke-miterlimit="10" stroke-linecap="round"/>
<path d="M194.836 176.883C189.925 174.631 185.598 172.781 183.989 174.97C181.242 178.712 185.245 182.145 191.204 184.498C193.372 182.62 194.848 180.068 194.836 176.883Z" fill="#F5EBDD"/>
<path d="M284.083 172.157C284.083 171.165 285.332 169.865 286.314 169.465C284.483 164.446 277.147 160.082 269.584 163.979C269.584 163.979 268.648 159.301 266.076 157.43C263.669 155.679 261.165 155.506 259.294 156.207L259.238 156.228C258.9 156.363 258.603 156.582 258.373 156.864C258.143 157.145 257.988 157.481 257.924 157.839C257.859 158.196 257.887 158.565 258.004 158.909C258.121 159.253 258.323 159.562 258.592 159.806L261.866 162.809L260.229 166.03C258.561 164.518 256.602 163.363 254.471 162.636C254.287 171.385 242.799 175.239 237.077 173.333C235.065 170.527 233.403 169.086 232.977 168.742L232.867 168.836C232.867 168.836 227.956 165.616 223.513 168.89C223.513 168.89 221.174 163.511 218.368 161.352C215.994 159.526 211.352 159.481 210.182 160.651L210.147 160.686C209.877 160.962 209.673 161.295 209.549 161.66C209.425 162.026 209.385 162.415 209.432 162.798C209.479 163.181 209.612 163.549 209.82 163.874C210.028 164.199 210.307 164.473 210.636 164.675L213.924 166.731C213.924 166.731 205.505 179.36 216.73 187.664H276.366C285.318 187.664 287.418 180.482 287.217 174.722C286.158 174.446 284.083 173.705 284.083 172.157Z" fill="#CA7358"/>
<path d="M237.077 173.333C242.799 175.239 254.287 171.385 254.471 162.636C252.12 161.806 249.609 161.526 247.133 161.82C240.351 162.617 233.873 167.975 232.977 168.742C233.403 169.086 235.065 170.515 237.077 173.333Z" fill="#F5EBDD"/>
<path d="M284.083 172.157C284.083 173.705 286.158 174.446 287.217 174.729C287.172 173.051 286.904 171.386 286.422 169.778C286.389 169.676 286.349 169.575 286.314 169.472C285.332 169.865 284.083 171.165 284.083 172.157Z" fill="#30242A"/>
<path d="M282.205 172.716L285.531 172.225" stroke="#30242A" stroke-width="4" stroke-linecap="round" stroke-linejoin="round"/>
<path d="M270.178 164.095C271.13 167.931 272.301 173.291 272.75 176.724" stroke="#30242A" stroke-width="4" stroke-linecap="round" stroke-linejoin="round"/>
<path d="M259.878 158.483L259.008 159.785" stroke="#30242A" stroke-width="4" stroke-linecap="round" stroke-linejoin="round"/>
<path d="M261.515 159.886L260.599 161.259" stroke="#30242A" stroke-width="4" stroke-linecap="round" stroke-linejoin="round"/>
<path d="M211.235 162.692L210.355 164.011" stroke="#30242A" stroke-width="4" stroke-linecap="round" stroke-linejoin="round"/>
<path d="M213.106 163.862L212.156 165.284" stroke="#30242A" stroke-width="4" stroke-linecap="round" stroke-linejoin="round"/>
<path d="M259.874 165.885C255.62 173.658 252.107 181.902 258.758 187.356" stroke="#30242A" stroke-width="4" stroke-linecap="round" stroke-linejoin="round"/>
<path d="M239.415 178.829C238.48 174.619 235.601 169.367 231.932 167.837C229.125 166.668 226.319 166.902 223.746 168.305C223.746 168.305 222.636 165.922 221.742 164.617" stroke="#30242A" stroke-width="4" stroke-miterlimit="10" stroke-linecap="round"/>
<path d="M280.428 169.996C280.428 169.996 281.13 172.185 282.205 172.716C282.205 172.716 281.443 173.808 281.317 175.922" stroke="#30242A" stroke-width="4" stroke-linecap="round" stroke-linejoin="round"/>
<path d="M251.108 161.874C251.108 161.874 249.237 165.148 246.197 164.914C243.157 164.68 243.391 160.237 246.899 157.664C248.379 156.794 250.132 156.512 251.81 156.874C254.799 157.526 256.548 163.546 256.548 163.546C256.548 163.546 253.447 162.108 251.108 161.874Z" fill="#CA7358"/>
<path d="M277.535 143.272L281.384 140.92L279.673 146.906L284.2 144.217" stroke="#FFB7D5" stroke-width="4" stroke-linecap="round" stroke-linejoin="round"/>
<path d="M285.945 133.56L289.998 133.237L286.181 137.355L290.748 137.037" stroke="#FFB7D5" stroke-width="4" stroke-linecap="round" stroke-linejoin="round"/>
<path d="M245.835 162.674L245.83 164.446" stroke="#30242A" stroke-width="4" stroke-linecap="round" stroke-linejoin="round"/>
<path d="M247.975 162.47L247.97 164.226" stroke="#30242A" stroke-width="4" stroke-linecap="round" stroke-linejoin="round"/>
<path d="M223.541 156.914L222.694 157.819" stroke="#30242A" stroke-width="4" stroke-linecap="round" stroke-linejoin="round"/>
<path d="M225.196 158.139L224.188 159.217" stroke="#30242A" stroke-width="4" stroke-linecap="round" stroke-linejoin="round"/>
<path d="M139.859 68.431L132.305 63.2182L131.98 62.9843C129.981 62.0489 124.553 62.3178 124.826 60.1335C124.885 59.6658 125.434 59.3126 126.302 59.0694L115.325 51.5133C114.918 51.2348 114.419 51.1277 113.934 51.2153C113.449 51.3028 113.019 51.578 112.736 51.981L111.566 53.6625C112.151 54.1716 112.528 54.8782 112.625 55.6474C112.722 56.4167 112.532 57.1947 112.092 57.833C111.652 58.4713 110.992 58.9251 110.239 59.1079C109.485 59.2907 108.691 59.1895 108.007 58.8239L106.669 60.7626C106.39 61.169 106.283 61.6692 106.37 62.1544C106.458 62.6396 106.733 63.0707 107.137 63.3538L131.669 80.2716C132.076 80.5508 132.576 80.6583 133.061 80.5707C133.546 80.4831 133.977 80.2075 134.261 79.8038L136.398 76.7051L140.336 71.0175C140.613 70.6104 140.718 70.1105 140.629 69.6263C140.54 69.1421 140.263 68.7126 139.859 68.431ZM125.64 72.7715C124.646 72.7715 123.674 72.4766 122.847 71.9241C122.02 71.3716 121.376 70.5864 120.995 69.6676C120.614 68.7489 120.515 67.7379 120.709 66.7625C120.903 65.7872 121.382 64.8912 122.085 64.1881C122.788 63.4849 123.684 63.006 124.659 62.812C125.635 62.618 126.646 62.7175 127.564 63.0981C128.483 63.4787 129.268 64.1231 129.821 64.95C130.373 65.7769 130.668 66.749 130.668 67.7434C130.668 69.0768 130.138 70.3553 129.195 71.2982C128.252 72.241 126.974 72.7709 125.64 72.7715ZM136.749 71.9226L133.826 76.1322C133.698 76.3142 133.503 76.4385 133.284 76.4779C133.065 76.5173 132.84 76.4687 132.656 76.3426C132.473 76.2155 132.348 76.0211 132.308 75.8019C132.268 75.5828 132.317 75.3567 132.443 75.1733L135.369 70.9638C135.432 70.8729 135.513 70.7953 135.606 70.7354C135.699 70.6756 135.803 70.6347 135.912 70.615C136.021 70.5954 136.132 70.5974 136.24 70.6209C136.349 70.6444 136.451 70.689 136.542 70.7521C136.633 70.8152 136.71 70.8956 136.77 70.9887C136.83 71.0818 136.871 71.1858 136.891 71.2947C136.91 71.4036 136.908 71.5153 136.885 71.6234C136.861 71.7316 136.817 71.834 136.754 71.9249L136.749 71.9226Z" fill="#4756DF"/>
<path d="M125.64 72.7715C128.417 72.7715 130.668 70.5204 130.668 67.7434C130.668 64.9665 128.417 62.7154 125.64 62.7154C122.863 62.7154 120.612 64.9665 120.612 67.7434C120.612 70.5204 122.863 72.7715 125.64 72.7715Z" fill="#3EC1F3"/>
<path d="M112.661 56.0502C112.661 55.5992 112.564 55.1533 112.377 54.743C112.19 54.3326 111.916 53.9673 111.576 53.6718L108.016 58.8332C108.473 59.0796 108.984 59.2082 109.504 59.2074C110.341 59.2074 111.144 58.8748 111.736 58.2827C112.328 57.6906 112.661 56.8876 112.661 56.0502Z" fill="#3EC1F3"/>
<path d="M136.531 70.7486C136.348 70.6228 136.122 70.5746 135.903 70.6144C135.684 70.6543 135.49 70.779 135.362 70.9614L132.436 75.171C132.31 75.3544 132.261 75.5805 132.301 75.7996C132.341 76.0188 132.466 76.2132 132.649 76.3403C132.832 76.4664 133.058 76.515 133.277 76.4756C133.496 76.4362 133.691 76.3119 133.818 76.1298L136.742 71.9203C136.869 71.737 136.919 71.5106 136.879 71.2909C136.84 71.0712 136.715 70.8761 136.531 70.7486Z" fill="#30242A"/>
<path d="M128.33 77.9165C128.33 77.9165 126.225 80.2552 124.12 78.1504C124.12 78.1504 121.548 78.852 120.612 76.7472C120.612 76.7472 118.507 77.6827 117.572 75.5779C117.511 75.4422 116.356 76.083 115.233 74.6424C113.596 72.5377 112.661 66.691 114.064 66.4572C116.473 66.0549 117.493 70.5732 117.535 70.4329C118.061 68.6532 118.973 67.1588 119.911 67.1588C121.548 67.1588 121.782 68.7958 121.782 68.7958C121.782 68.7958 122.771 67.4745 124.12 67.8604C125.757 68.3281 125.29 70.4329 125.29 70.4329C125.29 70.4329 126.791 69.4366 127.628 70.9006C128.564 72.5377 126.693 74.6424 126.927 76.9811L128.33 77.9165Z" fill="#EAA58B"/>
<path d="M125.154 70.0681C124.155 71.8127 122.581 75.1944 123.573 77.809" stroke="#A15842" stroke-width="4" stroke-linecap="round" stroke-linejoin="round"/>
<path d="M121.588 68.445C120.954 69.9417 119.625 73.5713 120.198 76.4969" stroke="#A15842" stroke-width="4" stroke-linecap="round" stroke-linejoin="round"/>
<path d="M117.275 69.8482C116.966 71.3449 116.74 73.3398 117.137 75.1616" stroke="#A15842" stroke-width="4" stroke-linecap="round" stroke-linejoin="round"/>
<path d="M205.505 35.1194C208.311 34.1839 211.585 30.2082 209.247 26.9341C206.148 22.5936 200.828 28.3373 200.828 28.3373C198.574 26.6935 196.864 24.413 195.917 21.7891C195.215 22.023 193.11 22.2569 191.473 21.7891C191.473 21.7891 190.772 23.66 190.304 26.9341C190.241 27.3832 190.166 27.8158 190.084 28.2321C190.084 28.2321 187.965 28.1035 187.731 29.0389C187.441 30.1942 189.296 31.436 189.296 31.436C188.571 34.0483 187.968 36.0572 188.901 38.3935C189.724 40.4538 191.473 42.8369 197.086 42.1353L196.766 44.5909H213.503C213.597 43.611 213.707 42.444 213.824 41.1835C211.925 40.545 207.172 38.6414 205.505 35.1194Z" fill="#EAA58B"/>
<path d="M207.376 14.0716C200.594 11.0314 194.28 15.7087 194.28 15.7087C194.28 15.7087 188.512 14.0482 188.199 17.8134C187.965 20.6198 191.473 21.7891 191.473 21.7891C193.11 22.2569 195.215 22.023 195.917 21.7891C196.864 24.413 198.574 26.6935 200.828 28.3373C200.828 28.3373 206.148 22.5936 209.247 26.9341C211.585 30.2082 208.311 34.1839 205.505 35.1194C207.172 38.6414 211.925 40.545 213.824 41.1835C214.235 36.7237 214.729 31.0759 214.86 28.3373C215.072 23.8729 214.626 17.3247 207.376 14.0716Z" fill="#4756DF"/>
<path d="M160.837 65.5217C160.837 65.5217 144.466 60.8445 138.152 59.4413C134.312 58.5877 128.882 58.3561 126.298 59.0788C125.43 59.3127 124.88 59.6728 124.822 60.1429C124.548 62.3272 129.967 62.0559 131.976 62.9937L139.859 68.431C140.263 68.7141 140.539 69.1452 140.626 69.6304C140.714 70.1156 140.606 70.6158 140.327 71.0222L136.408 76.7051C142.44 79.8306 148.962 81.9013 155.692 82.8277C161.896 83.686 169.427 80.2341 174.817 77.0583L165.774 62.1307C162.867 64.1139 160.837 65.5217 160.837 65.5217Z" fill="#EAA58B"/>
<path d="M213.503 44.5909H196.765L196.384 47.5142C196.384 47.5142 188.164 47.3411 182.352 51.0221C177.96 53.8028 170.64 58.7818 165.774 62.119L174.817 77.0583C177.269 75.6213 179.63 74.0334 181.885 72.3038L175.804 90.0775H216.263L213.222 47.5142C213.222 47.5142 213.337 46.3566 213.503 44.5909Z" fill="#30242A"/>
<path d="M195.916 48.0988L195.566 50.9052" stroke="#A15842" stroke-width="4" stroke-linecap="round" stroke-linejoin="round"/>
<path d="M184.808 62.5984L181.651 71.953" stroke="#A15842" stroke-width="4" stroke-linecap="round" stroke-linejoin="round"/>
<path d="M191.204 33.5992C191.59 33.8331 193.04 34.0272 193.627 32.9117" stroke="#A15842" stroke-width="4" stroke-linecap="round" stroke-linejoin="round"/>
<path d="M194.046 28.1034C194.433 28.1034 194.747 27.7893 194.747 27.4018C194.747 27.0144 194.433 26.7003 194.046 26.7003C193.658 26.7003 193.344 27.0144 193.344 27.4018C193.344 27.7893 193.658 28.1034 194.046 28.1034Z" fill="black"/>
<path d="M206.207 29.7405L203.634 31.3775" stroke="#A15842" stroke-width="4" stroke-linecap="round" stroke-linejoin="round"/>
<path d="M199.859 45.054L199.483 48.0872" stroke="#A15842" stroke-width="4" stroke-linecap="round" stroke-linejoin="round"/>
<path d="M203.365 45.054L202.991 48.0872" stroke="#A15842" stroke-width="4" stroke-linecap="round" stroke-linejoin="round"/>
<path d="M206.871 45.054L206.497 48.0872" stroke="#A15842" stroke-width="4" stroke-linecap="round" stroke-linejoin="round"/>
<path d="M197.257 42.5469C198.372 42.3504 199.925 41.9412 201.178 41.0829" stroke="#A15842" stroke-width="4" stroke-linecap="round" stroke-linejoin="round"/>
<path d="M214.677 77.6827L215.093 86.3357C215.093 86.3357 195.381 91.8595 188.648 96.911C185.608 99.1912 181.866 103.48 180.482 105.279C179.097 107.077 173.4 115.335 175.804 115.569C178.208 115.803 181.915 110.618 181.915 110.618C181.915 110.618 179.546 116.972 180.248 119.077C180.949 121.181 183.124 119.729 183.124 119.729C185.159 122.117 186.964 119.481 186.964 119.481C190.538 122.117 194.172 109.168 194.172 109.168C196.143 108.204 197.903 106.857 199.35 105.206C199.35 105.206 219.373 105.999 227.254 99.432C231.2 96.1439 233.148 87.3834 233.225 77.6827H214.677Z" fill="#EAA58B"/>
<path d="M230.061 55.4656C228.328 50.1826 222.577 47.5142 219.069 47.5142H213.222L214.677 77.6827H233.225C233.283 70.1335 232.21 62.0161 230.061 55.4656Z" fill="#30242A"/>
<path d="M215.194 77.4722L214.509 63.0662" stroke="#A15842" stroke-width="4" stroke-linecap="round" stroke-linejoin="round"/>
<path d="M215.465 85.7393L218.952 84.8155" stroke="#A15842" stroke-width="4" stroke-linecap="round" stroke-linejoin="round"/>
<path d="M181.365 111.022C182.1 109.058 183.22 106.146 184.106 104.226" stroke="#A15842" stroke-width="4" stroke-linecap="round" stroke-linejoin="round"/>
<path d="M187.38 105.863C184.873 111.263 183.405 117.323 182.937 119.512" stroke="#A15842" stroke-width="4" stroke-linecap="round" stroke-linejoin="round"/>
<path d="M190.888 107.734C189.284 111.427 187.804 116.35 186.999 119.217" stroke="#A15842" stroke-width="4" stroke-linecap="round" stroke-linejoin="round"/>
<path d="M61.8511 36.752H63.0031V40.028C62.5871 40.372 62.1031 40.636 61.5511 40.82C60.9991 41.004 60.4231 41.096 59.8231 41.096C58.9751 41.096 58.2111 40.912 57.5311 40.544C56.8511 40.168 56.3151 39.656 55.9231 39.008C55.5391 38.352 55.3471 37.616 55.3471 36.8C55.3471 35.984 55.5391 35.248 55.9231 34.592C56.3151 33.936 56.8511 33.424 57.5311 33.056C58.2191 32.688 58.9911 32.504 59.8471 32.504C60.5191 32.504 61.1271 32.616 61.6711 32.84C62.2231 33.056 62.6911 33.376 63.0751 33.8L62.3311 34.544C61.6591 33.896 60.8471 33.572 59.8951 33.572C59.2551 33.572 58.6791 33.712 58.1671 33.992C57.6631 34.264 57.2671 34.648 56.9791 35.144C56.6911 35.632 56.5471 36.184 56.5471 36.8C56.5471 37.408 56.6911 37.96 56.9791 38.456C57.2671 38.944 57.6631 39.328 58.1671 39.608C58.6791 39.888 59.2511 40.028 59.8831 40.028C60.6351 40.028 61.2911 39.848 61.8511 39.488V36.752ZM67.8686 33.644H64.9886V32.6H71.9366V33.644H69.0566V41H67.8686V33.644ZM80.2396 39.956V41H74.1436V32.6H80.0716V33.644H75.3436V36.224H79.5556V37.244H75.3436V39.956H80.2396ZM86.8035 41.096C85.9635 41.096 85.2035 40.912 84.5235 40.544C83.8515 40.168 83.3235 39.656 82.9395 39.008C82.5555 38.352 82.3635 37.616 82.3635 36.8C82.3635 35.984 82.5555 35.252 82.9395 34.604C83.3235 33.948 83.8555 33.436 84.5355 33.068C85.2155 32.692 85.9755 32.504 86.8155 32.504C87.4715 32.504 88.0715 32.616 88.6155 32.84C89.1595 33.056 89.6235 33.38 90.0075 33.812L89.2275 34.568C88.5955 33.904 87.8075 33.572 86.8635 33.572C86.2395 33.572 85.6755 33.712 85.1715 33.992C84.6675 34.272 84.2715 34.66 83.9835 35.156C83.7035 35.644 83.5635 36.192 83.5635 36.8C83.5635 37.408 83.7035 37.96 83.9835 38.456C84.2715 38.944 84.6675 39.328 85.1715 39.608C85.6755 39.888 86.2395 40.028 86.8635 40.028C87.7995 40.028 88.5875 39.692 89.2275 39.02L90.0075 39.776C89.6235 40.208 89.1555 40.536 88.6035 40.76C88.0595 40.984 87.4595 41.096 86.8035 41.096ZM99.8434 32.6V41H98.6434V37.256H93.8194V41H92.6194V32.6H93.8194V36.212H98.6434V32.6H99.8434ZM104.458 33.644V36.572H108.67V37.604H104.458V41H103.258V32.6H109.186V33.644H104.458ZM111.775 32.6H112.975V39.956H117.523V41H111.775V32.6ZM119.8 32.6H121V41H119.8V32.6ZM129.695 41L127.175 37.532L124.691 41H123.311L126.467 36.692L123.503 32.6H124.871L127.223 35.828L129.551 32.6H130.859L127.895 36.656L131.075 41H129.695Z" fill="#FF7235"/>
</svg>
